<svg width="173" height="75" viewBox="0 0 173 75" fill="none" xmlns="http://www.w3.org/2000/svg">
<path d="M10.0312 39.2812L29.0938 45.7188V55.3125L1.4375 44.0625V36.9375L10.0312 39.2812ZM29.0938 34.0625L10 40.625L1.4375 42.875V35.75L29.0938 24.5V34.0625ZM73.375 34.6875V53.375C72.6042 54.2292 71.4167 55.1458 69.8125 56.125C68.2292 57.0833 66.2292 57.9062 63.8125 58.5938C61.3958 59.2812 58.5521 59.625 55.2812 59.625C52.2604 59.625 49.5208 59.1458 47.0625 58.1875C44.6042 57.2083 42.4896 55.7812 40.7188 53.9062C38.9688 52.0104 37.6146 49.6979 36.6562 46.9688C35.7188 44.2188 35.25 41.0729 35.25 37.5312V35C35.25 31.4583 35.7292 28.3125 36.6875 25.5625C37.6458 22.8125 38.9896 20.5 40.7188 18.625C42.4688 16.7292 44.5208 15.2917 46.875 14.3125C49.25 13.3333 51.8542 12.8438 54.6875 12.8438C58.875 12.8438 62.2812 13.5104 64.9062 14.8438C67.5312 16.1562 69.5208 17.9792 70.875 20.3125C72.2292 22.625 73.0521 25.3021 73.3438 28.3438H62.8125C62.6042 26.8438 62.2083 25.5729 61.625 24.5312C61.0625 23.4688 60.25 22.6667 59.1875 22.125C58.125 21.5625 56.75 21.2812 55.0625 21.2812C53.75 21.2812 52.5521 21.5625 51.4688 22.125C50.4062 22.6875 49.5 23.5417 48.75 24.6875C48 25.8125 47.4167 27.2292 47 28.9375C46.6042 30.6458 46.4062 32.6458 46.4062 34.9375V37.5312C46.4062 39.8021 46.5938 41.7917 46.9688 43.5C47.3646 45.2083 47.9479 46.6354 48.7188 47.7812C49.5104 48.9062 50.5104 49.7604 51.7188 50.3438C52.9479 50.9062 54.3958 51.1875 56.0625 51.1875C57.2292 51.1875 58.2292 51.0938 59.0625 50.9062C59.8958 50.6979 60.5833 50.4479 61.125 50.1562C61.6875 49.8438 62.1146 49.5521 62.4062 49.2812V42.2188H54.7812V34.6875H73.375ZM101.812 13.5V59H90.8438V13.5H101.812ZM115.5 13.5V21.9688H77.4688V13.5H115.5ZM138.844 13.5L123.281 62.9062H115.781L131.344 13.5H138.844ZM161.656 40.5312L142.656 34.0938V24.5312L170.156 35.7812V42.9375L161.656 40.5312ZM142.656 45.7812L161.656 39.1875L170.156 36.9688V44.0938L142.656 55.3438V45.7812Z" fill="#FEFEFE"/>
</svg>
